# Exported using Kenney Suite 1.2 

mtllib character_ghost.mtl 

g character_ghost

v 1.3 3.524958E-18 1.3 
v 1.3 3.524958E-18 -1.3 
v -1.3 3.524958E-18 1.3 
v -1.3 3.524958E-18 -1.3 
v -1.3 2.6 -1.3 
v -1.3 2.6 1.3 
v 1.3 2.6 1.3 
v 1.3 2.6 -1.3 

vn 0 -1 0
vn -1 0 0
vn 0 0 1
vn 1 0 0
vn 0 1 0
vn 0 0 -1

vt -1 -0.5
vt -1 -0.75
vt -1.25 -0.5
vt -1.25 -0.75
vt -0.5 -0.5
vt -0.5 -0.25
vt -0.25 -0.5
vt -0.25 -0.25
vt -1 -0.25
vt -1.25 -0.25
vt -0.75 -0.25
vt -0.75 -0.5
vt -0.25 -0.75
vt 6.231127E-15 -0.75
vt 6.231127E-15 -0.5

usemtl ghost
usemap ghost

f 2/2/1 1/1/1 3/3/1
f 3/3/1 4/4/1 2/2/1
f 5/6/2 4/5/2 3/7/2
f 3/7/2 6/8/2 5/6/2
f 3/3/3 1/1/3 7/9/3
f 7/9/3 6/10/3 3/3/3
f 2/12/4 8/11/4 7/9/4
f 7/9/4 1/1/4 2/12/4
f 7/7/5 8/13/5 5/14/5
f 5/14/5 6/15/5 7/7/5
f 2/12/6 4/5/6 5/6/6
f 5/6/6 8/11/6 2/12/6
g head

v 1.3 5.2 -1.3 
v 1.3 5.2 1.3 
v -1.3 5.2 1.3 
v -1.3 5.2 -1.3 


vt 1.060263E-14 -0.75
vt 9.15934E-15 -0.5
vt -0.75 7.494005E-16
vt -1 7.494005E-16
vt 1.226796E-14 -0.25
vt 1.226796E-14 2.775558E-16
vt -0.25 2.775558E-16
vt -0.5 2.775558E-16
vt -0.75 2.775558E-16
vt -0.5 -0.75
vt -0.5 7.21645E-16
vt -0.25 7.21645E-16

usemtl ghost
usemap ghost

f 8/13/1 7/16/1 6/17/1
f 6/17/1 5/7/1 8/13/1
f 8/11/4 9/18/4 10/19/4
f 10/19/4 7/9/4 8/11/4
f 6/8/3 7/20/3 10/21/3
f 10/21/3 11/22/3 6/8/3
f 8/11/6 5/6/6 12/23/6
f 12/23/6 9/24/6 8/11/6
f 10/5/5 9/25/5 12/13/5
f 12/13/5 11/7/5 10/5/5
f 12/26/2 5/6/2 6/8/2
f 6/8/2 11/27/2 12/26/2
g left

v -1.3 0.3681599 0.55796 
v -2.41592 0.3681599 0.55796 
v -1.3 2.6 0.55796 
v -2.41592 2.6 0.55796 
v -1.3 2.6 -0.55796 
v -1.3 0.3681599 -0.55796 
v -2.41592 2.6 -0.55796 
v -2.41592 0.3681599 -0.55796 


vt -0.625 -0.75
vt -0.75 -0.75
vt -0.625 -0.5
vt -0.875 -0.5
vt -0.875 -0.75
vt -0.875 -0.625
vt -1 -0.625
vt -0.25 -15.5
vt -0.125 -15.5
vt -0.25 -15.625
vt -0.125 -15.625

usemtl ghost
usemap ghost

f 14/29/3 13/28/3 15/30/3
f 15/30/3 16/12/3 14/29/3
f 18/32/4 17/31/4 15/1/4
f 15/1/4 13/2/4 18/32/4
f 15/34/5 17/33/5 19/31/5
f 19/31/5 16/1/5 15/34/5
f 19/30/2 20/28/2 14/25/2
f 14/25/2 16/5/2 19/30/2
f 18/32/6 20/29/6 19/12/6
f 19/12/6 17/31/6 18/32/6
f 18/36/1 13/35/1 14/37/1
f 14/37/1 20/38/1 18/36/1
g right

v 2.41592 0.36816 0.55796 
v 2.41592 0.36816 -0.55796 
v 1.3 0.36816 0.55796 
v 1.3 0.36816 -0.55796 
v 2.41592 2.6 -0.55796 
v 2.41592 2.6 0.55796 
v 1.3 2.6 -0.55796 
v 1.3 2.6 0.55796 



usemtl ghost
usemap ghost

f 22/37/1 21/38/1 23/36/1
f 23/36/1 24/35/1 22/37/1
f 22/25/4 25/5/4 26/30/4
f 26/30/4 21/28/4 22/25/4
f 27/1/2 24/2/2 23/32/2
f 23/32/2 28/31/2 27/1/2
f 26/31/5 25/1/5 27/34/5
f 27/34/5 28/33/5 26/31/5
f 23/32/3 21/29/3 26/12/3
f 26/12/3 28/31/3 23/32/3
f 22/29/6 24/28/6 27/30/6
f 27/30/6 25/12/6 22/29/6
