# Exported using Kenney Suite 1.2 

mtllib fenceStone.mtl 

g fenceStone

v -1 0.7 1 
v -10 0.7 1 
v -1 0.9 0.9299999 
v -10 0.9 0.9299999 
v -1 0.9 0.07 
v -1 0.9 0.3291415 
v -10 0.9 0.07 
v -10 0.9 0.3291415 
v 0 0 1 
v 0 0 0 
v -10 0 1 
v -10 0 0 
v -10 0.7 0 
v -1 0.7 0 
v -1 7.4 0 
v -1 7.4 1 
v -0.91 7.2 0.09 
v -0.91 7.2 0.91 
v -1 1.1 0 
v 0 1.1 0 
v -0.91 1.3 0.09 
v -0.09 1.3 0.09 
v 0 7.4 0 
v -0.09 7.2 0.09 
v 0 7.4 1 
v -0.09 7.2 0.91 
v 0 7.9 0 
v 0 7.9 1 
v -1 7.9 0 
v -1 7.9 1 
v -10 0.9 0.6708585 
v -10 6.019141 0.3291415 
v -10 6.019141 0.6708585 
v -10 6.519141 0.7708585 
v -10 6.519141 0.2291415 
v -10 6.019141 0.2291415 
v -10 6.019141 0.7708585 
v -1 1.1 0.6708585 
v -0.91 1.3 0.6708585 
v -1 1.1 1 
v -0.91 1.3 0.91 
v -0.09 1.3 0.91 
v -1 0.9 0.6708585 
v 0 1.1 1 
v -0.91 1.3 0.3291415 
v -0.91 6.019141 0.2291415 
v -0.91 6.019141 0.3291415 
v -0.91 6.519141 0.2291415 
v -0.91 6.519141 0.7708585 
v -0.91 6.019141 0.7708585 
v -0.91 6.019141 0.6708585 
v -1 1.1 0.3291415 

vn 0 0.3303504 0.9438583
vn 0 1 0
vn 0 -1 0
vn 0 0.3303504 -0.9438583
vn -0.9119215 -0.4103647 0
vn 0 0.4103647 -0.9119215
vn 0.9119215 -0.4103647 0
vn -1 0 0
vn -0.9119215 0.4103647 0
vn 1 0 0
vn 0 -0.4103647 -0.9119215
vn 0 0.4103647 0.9119215
vn 0 0 1
vn 0 0 -1
vn 0.9119215 0.4103647 0
vn 0 -0.4103647 0.9119215

vt -3.937008 1.300592
vt -39.37008 1.300592
vt -3.937008 2.134829
vt -39.37008 2.134829
vt 3.937008 0.2755905
vt 3.937008 1.295833
vt 39.37008 0.2755905
vt 39.37008 1.295833
vt 0 3.937008
vt 0 0
vt -39.37008 3.937008
vt -39.37008 0
vt 39.37008 2.601184
vt 3.937008 2.601184
vt 39.37008 3.435421
vt 3.937008 3.435421
vt 1.686179E-17 28.1834
vt 3.937008 28.1834
vt 0.3543307 27.31995
vt 3.582677 27.31995
vt 3.937008 3.949266
vt 9.62965E-35 3.949266
vt 3.582677 4.81272
vt 0.3543307 4.81272
vt 0 26.56779
vt -0.3543307 25.70434
vt -3.937008 26.56779
vt -3.582677 25.70434
vt 3.937008 0
vt 3.937008 3.937008
vt -2.867847E-13 -2.654526E-14
vt -2.867847E-13 2.755906
vt 3.937008 -2.654526E-14
vt 0.2755905 3.543307
vt 1.295833 3.543307
vt 2.641175 3.543307
vt 1.295833 23.69741
vt 3.661417 3.543307
vt 3.937008 2.755906
vt 2.641175 23.69741
vt 3.034876 25.66591
vt 0.902132 25.66591
vt 0.902132 23.69741
vt 3.034876 23.69741
vt 2.641175 2.333658
vt 2.641175 3.197111
vt 3.937008 2.333658
vt 3.582677 3.197111
vt -0.3543307 28.34646
vt -0.3543307 5.11811
vt -3.582677 28.34646
vt -3.582677 5.11811
vt 2.641175 4.330709
vt 3.937008 4.330709
vt 3.582677 25.70434
vt 0.3543307 25.70434
vt 3.937008 26.56779
vt 1.686179E-18 2.333658
vt -3.937008 2.333658
vt -0.3543307 3.197111
vt -3.582677 3.197111
vt 0 4.330709
vt -3.937008 4.330709
vt -3.937008 0
vt -3.937008 2.755906
vt -39.37008 2.755906
vt 3.937008 29.13386
vt 0 29.13386
vt 3.937008 31.10236
vt 0 31.10236
vt -3.937008 29.13386
vt -3.937008 31.10236
vt 39.37008 0
vt 39.37008 2.755906
vt 3.582677 5.11811
vt 0.3543307 5.11811
vt 3.582677 28.34646
vt 0.3543307 28.34646
vt -3.937008 3.949266
vt -0.3543307 4.81272
vt -3.582677 4.81272
vt -0.3543307 27.31995
vt -3.582677 27.31995
vt 1.686179E-18 28.1834
vt -3.937008 28.1834
vt 1.295833 5.11811
vt 2.641175 5.11811
vt -3.434817E-17 2.333658
vt 0.3543307 3.197111
vt 1.295833 2.333658
vt 1.295833 3.197111
vt 1.841033E-14 2.755906
vt 1.841033E-14 4.330709
vt 1.295833 4.330709
vt 3.582677 1.295833
vt 3.582677 2.641175
vt 39.37008 2.641175
vt 3.937008 2.641175
vt 3.937008 3.661417
vt 39.37008 3.661417
vt 39.37008 3.543307
vt 3.937008 3.543307
vt 39.37008 23.69741
vt 3.582677 23.69741
vt -3.937008 3.543307
vt -39.37008 3.543307
vt -39.37008 23.69741
vt -3.582677 23.69741
vt 3.582677 0.902132
vt 3.582677 3.034876
vt 39.37008 0.902132
vt 39.37008 3.034876
vt 39.37008 25.66591
vt 3.582677 25.66591
vt -3.582677 1.295833
vt -3.582677 0.902132
vt -39.37008 1.295833
vt -39.37008 0.902132
vt -3.582677 25.66591
vt -39.37008 25.66591
vt -3.582677 3.034876
vt -3.582677 2.641175
vt -39.37008 3.034876
vt -39.37008 2.641175

usemtl stone
usemap stone

f 2/2/1 1/1/1 3/3/1
f 3/3/1 4/4/1 2/2/1
f 6/6/2 5/5/2 7/7/2
f 7/7/2 8/8/2 6/6/2
f 10/10/3 9/9/3 11/11/3
f 11/11/3 12/12/3 10/10/3
f 14/14/4 13/13/4 7/15/4
f 7/15/4 5/16/4 14/14/4
f 16/18/5 15/17/5 17/19/5
f 17/19/5 18/20/5 16/18/5
f 20/22/6 19/21/6 21/23/6
f 21/23/6 22/24/6 20/22/6
f 24/26/7 23/25/7 25/27/7
f 25/27/7 26/28/7 24/26/7
f 28/9/2 27/10/2 29/29/2
f 29/29/2 30/30/2 28/9/2
f 13/32/8 12/31/8 11/33/8
f 11/33/8 7/34/8 13/32/8
f 11/33/8 8/35/8 7/34/8
f 11/33/8 31/36/8 8/35/8
f 31/36/8 32/37/8 8/35/8
f 11/33/8 4/38/8 31/36/8
f 11/33/8 2/39/8 4/38/8
f 32/37/8 31/36/8 33/40/8
f 32/37/8 33/40/8 34/41/8
f 32/37/8 34/41/8 35/42/8
f 35/42/8 36/43/8 32/37/8
f 33/40/8 37/44/8 34/41/8
f 39/46/9 38/45/9 40/47/9
f 40/47/9 41/48/9 39/46/9
f 22/50/10 24/49/10 26/51/10
f 26/51/10 42/52/10 22/50/10
f 38/53/8 43/36/8 3/38/8
f 3/38/8 40/54/8 38/53/8
f 3/38/8 1/39/8 40/54/8
f 24/56/11 17/55/11 15/57/11
f 15/57/11 23/25/11 24/56/11
f 40/59/12 44/58/12 42/60/12
f 42/60/12 41/61/12 40/59/12
f 10/10/10 20/62/10 44/63/10
f 44/63/10 9/64/10 10/10/10
f 1/65/13 11/12/13 9/10/13
f 9/10/13 44/62/13 1/65/13
f 44/62/13 40/63/13 1/65/13
f 11/12/13 1/65/13 2/66/13
f 23/68/14 15/67/14 29/69/14
f 29/69/14 27/70/14 23/68/14
f 16/71/13 25/68/13 28/70/13
f 28/70/13 30/72/13 16/71/13
f 41/52/13 42/50/13 26/49/13
f 26/49/13 18/51/13 41/52/13
f 29/70/8 15/68/8 16/67/8
f 16/67/8 30/69/8 29/70/8
f 10/10/14 12/73/14 13/74/14
f 13/74/14 14/39/14 10/10/14
f 14/39/14 20/62/14 10/10/14
f 14/39/14 19/54/14 20/62/14
f 22/76/14 21/75/14 17/77/14
f 17/77/14 24/78/14 22/76/14
f 44/79/15 20/22/15 22/80/15
f 22/80/15 42/81/15 44/79/15
f 23/68/10 27/70/10 28/72/10
f 28/72/10 25/71/10 23/68/10
f 18/83/16 26/82/16 25/84/16
f 25/84/16 16/85/16 18/83/16
f 17/78/8 21/76/8 45/86/8
f 45/86/8 46/43/8 17/78/8
f 45/86/8 47/37/8 46/43/8
f 17/78/8 46/43/8 48/42/8
f 48/42/8 46/43/8 47/37/8
f 48/42/8 18/77/8 17/78/8
f 48/42/8 49/41/8 18/77/8
f 47/37/8 49/41/8 48/42/8
f 49/41/8 41/75/8 18/77/8
f 41/75/8 49/41/8 50/44/8
f 41/75/8 50/44/8 51/40/8
f 47/37/8 51/40/8 49/41/8
f 51/40/8 50/44/8 49/41/8
f 51/40/8 39/87/8 41/75/8
f 21/89/9 19/88/9 52/90/9
f 52/90/9 45/91/9 21/89/9
f 19/93/8 14/92/8 5/34/8
f 5/34/8 52/94/8 19/93/8
f 5/34/8 6/35/8 52/94/8
f 51/96/2 47/95/2 32/8/2
f 32/8/2 33/97/2 51/96/2
f 3/99/2 43/98/2 31/97/2
f 31/97/2 4/100/2 3/99/2
f 6/102/14 8/101/14 32/103/14
f 32/103/14 52/54/14 6/102/14
f 32/103/14 45/75/14 52/54/14
f 32/103/14 47/104/14 45/75/14
f 31/106/13 43/105/13 38/63/13
f 38/63/13 33/107/13 31/106/13
f 38/63/13 39/52/13 33/107/13
f 39/52/13 51/108/13 33/107/13
f 49/110/2 48/109/2 35/111/2
f 35/111/2 34/112/2 49/110/2
f 46/104/14 36/103/14 35/113/14
f 35/113/14 48/114/14 46/104/14
f 46/116/3 47/115/3 32/117/3
f 32/117/3 36/118/3 46/116/3
f 37/107/13 50/108/13 49/119/13
f 49/119/13 34/120/13 37/107/13
f 51/122/3 50/121/3 37/123/3
f 37/123/3 33/124/3 51/122/3
