# Exported using Kenney Suite 1.2 

mtllib pitsGarageClosed_exclusive.mtl 

g pitsGarageClosed_exclusive

v -6.276298E-11 5.438118 -0.8999999 
v -2.279796E-10 5.438118 -0.3999999 
v -6.276298E-11 7 -0.8999999 
v 0 7 10 
v -2.279796E-10 4.359281 -0.3999999 
v 0 3.951664 5.491057E-08 
v 0 0 5.554275E-08 
v 0 0 10 
v -10 0 10 
v -10 7 10 
v -10 4.359281 -0.3999999 
v -10 5.438118 -0.3999999 
v -10 3.951664 5.554275E-08 
v -10 7 -0.8999999 
v -10 5.438118 -0.8999999 
v -10 0 5.554275E-08 
v -5.424182 0.09999999 5.554275E-08 
v -5.424182 0.15 0.4241821 
v -9.151636 0.09999999 0 
v -9.151636 0.15 0.424182 
v -5.424182 0.2 0.848364 
v -9.151636 0.2 0.848364 
v -0.8483639 0.09999999 5.554275E-08 
v -0.8483639 0.15 0.4241821 
v -4.575818 0.09999999 3.609557E-15 
v -4.575818 0.15 0.424182 
v -0.8483639 0.2 0.848364 
v -4.575818 0.2 0.848364 
v -5.424182 1.37099 1.605983E-08 
v -5.424182 4.495708 5.554275E-08 
v -5.424182 1.37099 0.4241821 
v -5.424182 4.495708 0.4241821 
v -5.424182 1.37099 0.848364 
v -5.424182 4.495708 0.848364 
v -0.8483639 0.2 9.099999 
v -9.151636 0.2 9.099999 
v -4.575818 1.37099 1.605983E-08 
v -4.575818 1.37099 0.4241821 
v -4.575818 4.495708 5.554275E-08 
v -4.575818 4.495708 0.4241821 
v -4.575818 1.37099 0.848364 
v -4.575818 4.495708 0.848364 
v -0.8483639 3.951664 5.554275E-08 
v -0.8483639 4.495708 5.554275E-08 
v -0.8483639 4.495708 0.4241821 
v -0.8483639 5.438118 5.328983E-08 
v -0.8483639 4.359281 -0.3999999 
v -0.8483639 5.438118 -0.3999999 
v -0.8483639 4.495708 9.099999 
v -9.151636 3.951664 5.329213E-08 
v -9.151636 4.495708 5.554275E-08 
v -9.151636 4.495708 0.4241821 
v -9.151636 5.438118 5.542443E-08 
v -9.151636 4.359281 -0.3999999 
v -9.151636 5.438118 -0.3999999 
v -9.151636 4.495708 9.099999 
v -7.65729 0.4029503 0.4241821 
v -6.918528 0.4029503 0.4241821 
v -7.65729 0.7249606 0.4241821 
v -6.918528 0.7249606 0.4241821 
v -3.081472 0.4029503 0.4241821 
v -2.34271 0.4029503 0.4241821 
v -3.081472 0.7249606 0.4241821 
v -2.34271 0.7249606 0.4241821 
v -8.765434 3.102951 0.4241821 
v -8.765434 3.869641 0.4241821 
v -5.810384 3.869641 0.4241821 
v -5.424182 4.545707 0.4241821 
v -9.151636 4.545707 0.4241821 
v -5.810384 3.102951 0.4241821 
v -1.234566 3.102951 0.4241821 
v -4.189616 3.102951 0.4241821 
v -4.189616 3.869641 0.4241821 
v -1.234566 3.869641 0.4241821 
v -4.575818 4.545707 0.4241821 
v -0.8483639 4.545707 0.4241821 

vn 1 0 0
vn 0 0 1
vn -1 0 0
vn 0 1 0
vn 0 0.9931244 -0.1170635
vn 0 0.9931244 -0.1170635
vn 0 -1 0
vn 0 0 -1
vn 0 -0.7004071 -0.7137436
vn 0 0.9931244 -0.1170635

vt 3.543307 21.40991
vt 1.574803 21.40991
vt 3.543307 27.55906
vt -39.37008 27.55906
vt 1.574803 17.16252
vt -2.161834E-07 15.55773
vt -2.186722E-07 1.579013E-29
vt -39.37008 2.842879E-21
vt 0 0
vt -39.37008 0
vt 0 27.55906
vt -1.574803 17.16252
vt -1.574803 21.40991
vt 2.185615E-07 15.55773
vt 39.37008 27.55906
vt -3.543307 27.55906
vt -3.543307 21.40991
vt 39.37008 1.87255E-10
vt 2.185615E-07 1.87255E-10
vt 0 39.37008
vt 39.37008 39.37008
vt 2.470983E-10 -3.543307
vt 39.37008 -3.543307
vt 21.35505 0.04608851
vt 21.35505 1.727658
vt 36.03006 0.04608851
vt 36.03006 1.727658
vt 21.35505 3.409227
vt 36.03006 3.409228
vt 3.340016 0.04608825
vt 3.340016 1.727658
vt 18.01503 0.04608825
vt 18.01503 1.727658
vt 3.340016 3.409227
vt 18.01503 3.409227
vt 6.32273E-08 5.397598
vt 2.186719E-07 17.69964
vt 1.670008 5.397598
vt 1.670008 17.69964
vt 3.340016 5.397598
vt 3.340016 17.69964
vt 3.340016 3.340016
vt 3.340016 35.82677
vt 18.01503 3.340016
vt 36.03006 35.82677
vt 21.35505 3.340016
vt 36.03006 3.340016
vt -6.322766E-08 5.397598
vt -1.670008 5.397598
vt -2.186722E-07 17.69964
vt -1.670008 17.69964
vt -3.340016 5.397598
vt -3.340016 17.69964
vt 2.186722E-07 0.3937008
vt 2.186722E-07 15.55773
vt 1.670008 0.5905512
vt 2.186722E-07 17.69964
vt 2.078988E-07 21.40991
vt -1.574803 17.16252
vt -1.574803 21.40991
vt 3.340016 0.7874016
vt 35.82677 17.69964
vt 35.82677 0.7874016
vt 0 0.3937008
vt -1.670008 0.5905512
vt -2.098115E-07 15.55773
vt -2.154447E-07 21.40991
vt 1.574803 17.16252
vt 1.574803 21.40991
vt -3.340016 0.7874016
vt -35.82677 17.69964
vt -35.82677 0.7874016
vt -3.340016 35.82677
vt -3.340016 1.670008
vt -36.03006 35.82677
vt -3.340016 2.186722E-07
vt -18.01503 3.340016
vt -21.35505 3.340016
vt -21.35505 1.670008
vt -21.35505 2.186722E-07
vt -36.03006 2.186722E-07
vt -36.03006 1.670008
vt -18.01503 2.186722E-07
vt -18.01503 1.670008
vt -18.01503 5.397598
vt -21.35505 5.397598
vt -18.01503 17.69964
vt -21.35505 17.69964
vt 36.03006 0.7874016
vt 3.340016 0.7874016
vt 36.03006 17.69964
vt 3.340016 17.69964
vt -3.340016 1.999941E-07
vt -3.340016 -1.574803
vt -36.03006 2.083981E-07
vt -36.03006 -1.574803
vt -39.37008 -3.543307
vt -6.699094E-10 -1.574803
vt -1.945008E-11 -3.543307
vt -39.37008 -1.574803
vt 39.37008 17.16252
vt 36.03006 17.16252
vt 39.37008 21.40991
vt 36.03006 21.40991
vt 21.35505 17.69964
vt 18.01503 17.69964
vt 3.340016 21.40991
vt 18.01503 5.397598
vt 21.35505 5.397598
vt 3.340016 17.16252
vt 1.236286E-14 17.16252
vt 1.236286E-14 21.40991
vt 36.03006 0.3937008
vt 18.01503 0.3937008
vt 21.35505 0.3937008
vt -2.753884E-16 9.788204E-16
vt 39.37008 1.200756E-15
vt 39.37008 15.55773
vt 36.03006 15.55773
vt 3.340016 0.3937008
vt -2.72254E-16 15.55773
vt 3.340016 15.55773
vt 30.14681 1.586419
vt 27.2383 1.586419
vt 30.14681 2.854176
vt 27.2383 2.854176
vt 12.13178 1.586419
vt 9.223267 1.586419
vt 12.13178 2.854176
vt 9.223267 2.854176
vt -2.159106E-07 17.69964
vt -2.070499E-07 15.55773
vt 2.167686E-07 17.69964
vt 2.167686E-07 15.55773
vt -1.997447 1.181283
vt -3.997448 1.181282
vt -1.997447 1.806037
vt -3.997448 1.806036
vt -18.01503 0.7874016
vt -21.35505 0.7874016
vt -1.421085E-14 0.3937008
vt 34.50958 12.21634
vt 36.03006 0.5905512
vt 34.50958 15.23481
vt 22.87553 15.23481
vt 21.35505 17.89649
vt 36.03006 17.89649
vt 22.87553 12.21634
vt 21.35505 0.5905512
vt 18.01503 0.5905512
vt 3.340016 0.5905512
vt 4.860495 12.21634
vt 16.49455 12.21634
vt 16.49455 15.23481
vt 4.860495 15.23481
vt 18.01503 17.89649
vt 3.340016 17.89649

usemtl grey
usemap grey

f 2/2/1 1/1/1 3/3/1
f 3/3/1 4/4/1 2/2/1
f 4/4/1 5/5/1 2/2/1
f 4/4/1 6/6/1 5/5/1
f 4/4/1 7/7/1 6/6/1
f 4/4/1 8/8/1 7/7/1
f 9/10/2 8/9/2 4/11/2
f 4/11/2 10/4/2 9/10/2
f 12/13/3 11/12/3 13/14/3
f 12/13/3 13/14/3 10/15/3
f 12/13/3 10/15/3 14/16/3
f 14/16/3 15/17/3 12/13/3
f 13/14/3 9/18/3 10/15/3
f 13/14/3 16/19/3 9/18/3
f 10/21/4 4/20/4 3/22/4
f 3/22/4 14/23/4 10/21/4
f 18/25/5 17/24/5 19/26/5
f 19/26/5 20/27/5 18/25/5
f 21/28/6 18/25/5 20/27/5
f 20/27/5 22/29/6 21/28/6
f 24/31/5 23/30/5 25/32/5
f 25/32/5 26/33/5 24/31/5
f 27/34/6 24/31/5 26/33/5
f 26/33/5 28/35/6 27/34/6
f 30/37/3 29/36/3 31/38/3
f 31/38/3 32/39/3 30/37/3
f 32/39/3 31/38/3 33/40/3
f 33/40/3 34/41/3 32/39/3
f 35/43/4 27/42/4 28/44/4
f 28/44/4 36/45/4 35/43/4
f 28/44/4 21/46/4 36/45/4
f 21/46/4 22/47/4 36/45/4
f 38/49/1 37/48/1 39/50/1
f 39/50/1 40/51/1 38/49/1
f 41/52/1 38/49/1 40/51/1
f 40/51/1 42/53/1 41/52/1
f 43/55/3 23/54/3 24/56/3
f 24/56/3 44/57/3 43/55/3
f 24/56/3 45/39/3 44/57/3
f 43/55/3 44/57/3 46/58/3
f 47/59/3 43/55/3 46/58/3
f 46/58/3 48/60/3 47/59/3
f 45/39/3 24/56/3 27/61/3
f 27/61/3 49/62/3 45/39/3
f 27/61/3 35/63/3 49/62/3
f 20/65/1 19/64/1 50/66/1
f 50/66/1 51/50/1 20/65/1
f 51/50/1 52/51/1 20/65/1
f 53/67/1 51/50/1 50/66/1
f 53/67/1 50/66/1 54/68/1
f 54/68/1 55/69/1 53/67/1
f 22/70/1 20/65/1 52/51/1
f 52/51/1 56/71/1 22/70/1
f 56/71/1 36/72/1 22/70/1
f 45/74/7 49/73/7 56/75/7
f 56/75/7 44/76/7 45/74/7
f 56/75/7 42/77/7 44/76/7
f 56/75/7 34/78/7 42/77/7
f 56/75/7 32/79/7 34/78/7
f 56/75/7 30/80/7 32/79/7
f 56/75/7 51/81/7 30/80/7
f 56/75/7 52/82/7 51/81/7
f 39/83/7 44/76/7 42/77/7
f 42/77/7 40/84/7 39/83/7
f 33/86/2 41/85/2 42/87/2
f 42/87/2 34/88/2 33/86/2
f 35/90/8 36/89/8 56/91/8
f 56/91/8 49/92/8 35/90/8
f 48/94/7 46/93/7 53/95/7
f 48/94/7 53/95/7 55/96/7
f 48/94/7 55/96/7 15/97/7
f 2/98/7 48/94/7 15/97/7
f 15/97/7 1/99/7 2/98/7
f 55/96/7 12/100/7 15/97/7
f 54/102/8 11/101/8 12/103/8
f 12/103/8 55/104/8 54/102/8
f 30/105/8 51/91/8 53/104/8
f 53/104/8 39/106/8 30/105/8
f 53/104/8 44/92/8 39/106/8
f 53/104/8 46/107/8 44/92/8
f 30/105/8 39/106/8 37/108/8
f 37/108/8 29/109/8 30/105/8
f 5/111/8 47/110/8 48/107/8
f 48/107/8 2/112/8 5/111/8
f 25/114/8 19/113/8 17/115/8
f 19/113/8 25/114/8 7/116/8
f 19/113/8 7/116/8 16/117/8
f 16/117/8 13/118/8 19/113/8
f 13/118/8 50/119/8 19/113/8
f 7/116/8 25/114/8 23/120/8
f 23/120/8 6/121/8 7/116/8
f 23/120/8 43/122/8 6/121/8
f 58/124/8 57/123/8 59/125/8
f 59/125/8 60/126/8 58/124/8
f 62/128/8 61/127/8 63/129/8
f 63/129/8 64/130/8 62/128/8

usemtl _defaultMat
usemap _defaultMat

f 8/87/4 7/88/4 16/86/4
f 16/87/4 9/88/4 8/86/4
f 50/67/9 13/131/9 11/132/9
f 11/67/9 54/131/9 50/132/9
f 6/134/9 43/133/9 47/58/9
f 47/134/9 5/133/9 6/58/9
f 26/120/10 25/122/10 17/121/10
f 17/120/10 28/122/10 26/121/10
f 17/120/10 21/122/10 28/121/10
f 17/120/10 18/122/10 21/121/10
f 38/48/4 37/49/4 29/65/4
f 29/48/4 41/49/4 38/65/4
f 29/48/4 33/49/4 41/65/4
f 29/48/4 31/49/4 33/65/4

usemtl tankco
usemap tankco

f 1/136/8 15/135/8 14/137/8
f 14/137/8 3/138/8 1/136/8

usemtl red
usemap red

f 37/108/8 25/114/8 17/115/8
f 17/115/8 29/109/8 37/108/8
f 31/38/3 29/36/3 17/54/3
f 17/54/3 18/56/3 31/38/3
f 31/38/3 18/56/3 21/61/3
f 21/61/3 33/40/3 31/38/3
f 21/140/2 28/139/2 41/85/2
f 41/85/2 33/86/2 21/140/2
f 26/65/1 25/141/1 37/48/1
f 37/48/1 38/49/1 26/65/1
f 28/70/1 26/65/1 38/49/1
f 38/49/1 41/52/1 28/70/1
f 65/142/8 57/123/8 20/143/8
f 20/143/8 52/91/8 65/142/8
f 65/142/8 59/125/8 57/123/8
f 65/142/8 60/126/8 59/125/8
f 65/142/8 31/109/8 60/126/8
f 52/91/8 66/144/8 65/142/8
f 52/91/8 67/145/8 66/144/8
f 52/91/8 32/105/8 67/145/8
f 52/91/8 68/146/8 32/105/8
f 52/91/8 69/147/8 68/146/8
f 70/148/8 32/105/8 31/109/8
f 31/109/8 65/142/8 70/148/8
f 70/148/8 67/145/8 32/105/8
f 20/143/8 57/123/8 58/124/8
f 58/124/8 60/126/8 31/109/8
f 58/124/8 31/109/8 18/149/8
f 18/149/8 20/143/8 58/124/8
f 61/127/8 26/150/8 38/108/8
f 38/108/8 63/129/8 61/127/8
f 38/108/8 64/130/8 63/129/8
f 26/150/8 61/127/8 62/128/8
f 24/151/8 26/150/8 62/128/8
f 24/151/8 62/128/8 71/152/8
f 62/128/8 64/130/8 71/152/8
f 64/130/8 38/108/8 71/152/8
f 71/152/8 45/92/8 24/151/8
f 38/108/8 72/153/8 71/152/8
f 72/153/8 38/108/8 40/106/8
f 40/106/8 73/154/8 72/153/8
f 40/106/8 74/155/8 73/154/8
f 71/152/8 74/155/8 45/92/8
f 74/155/8 40/106/8 45/92/8
f 40/106/8 75/156/8 45/92/8
f 75/156/8 76/157/8 45/92/8

usemtl glass
usemap glass

f 70/148/8 65/142/8 66/144/8
f 66/144/8 67/145/8 70/148/8
f 71/152/8 72/153/8 73/154/8
f 73/154/8 74/155/8 71/152/8
